<?xml version="1.0" encoding="utf-8"?>
<!-- Generator: Adobe Illustrator 27.3.1, SVG Export Plug-In . SVG Version: 6.00 Build 0)  -->
<svg version="1.1" id="Слой_2" xmlns="http://www.w3.org/2000/svg" xmlns:xlink="http://www.w3.org/1999/xlink" x="0px" y="0px"
	 viewBox="0 0 4000 4000" style="enable-background:new 0 0 4000 4000;" xml:space="preserve">
<style type="text/css">
	.st0{fill:#F6A119;}
	.st1{fill:#FFFFFF;}
</style>
<g>
	<path class="st0" d="M3692.8,2192.7c0,0.1,0,0.2,0,0.3c-14.2,462.5-393.5,833-859.4,833H1593c-4,0-7.7-1.8-10.2-4.6
		c-0.6-0.7-0.9-1.7-0.8-2.7c19.8-154.8,92-375.8,321.9-556.9c16.4-12.9,36.8-19.8,57.8-19.8h479.2c2.6,0,4.3,2.6,3.3,5l-32.3,75.9
		c-2,4.7,1,10.1,6.1,10.7c11.8,1.4,33.2,3.5,61,4.1c2.5,0.1,4.3,2.7,3.3,5l-70.4,165.2c-2,4.7,1,10.1,6.1,10.7
		c75.5,9.1,548.9,45.8,531.1-461.3c-0.8-21.8-2.8-42.5-6.3-62.2c-76.1-446.3-803.5-384.8-1549.6-370.7
		c-415.1,7.8-847.1-218.9-1026.1-522.3c-1.4-2.4,0.3-5.4,3.1-5.4h2753.6c0.7,0,1.4,0.2,2,0.6l232.2,151.6c0.2,0.1,0.4,0.3,0.5,0.4
		C3557.8,1636.3,3684.6,1899.7,3692.8,2192.7z"/>
	<path class="st1" d="M3693.2,2038.1v128c0,8.9-0.1,17.9-0.4,26.7c-14.1,462.5-393.5,833.1-859.4,833.1H1593
		c-4.6,0-8.7-2.3-11.1-5.8c-1.2-1.8-2-3.8-2.3-6.1c-8.7-71.9-35.8-453.5,324.5-737.3c16.4-12.9,36.8-19.8,57.8-19.8h552.1
		c5.4,0,9,5.5,6.9,10.5l-74.4,174.4l-34.5,80.9c-2,4.7,1,10.1,6.1,10.7c12.5,1.5,35.9,3.7,66.3,4.1
		c136.4,1.9,411.9-33.5,458.5-342.8c5.5-36.8,7.8-77.6,6.3-122.7c-18-514.1-776.8-447.6-1555.9-432.9
		c-327.9,6.2-666.5-134.1-882.4-342.9c-96.1-92.9-167.9-199.3-203.7-312.4c-1.5-4.9,2.2-9.9,7.3-9.9l2316.9,1.5
		C3217.9,976,3693.2,1451.6,3693.2,2038.1z"/>
	<path class="st0" d="M3447,2146.4c29.7,128.3-9.8,270.2-81,378.8c-73.6,111.6-185,195.7-308.6,244.9
		c-81.2,32.6-166.4,52.1-252.6,55.2c19.3-10,38.6-18.9,57.9-27.5c19-9.6,38-18.5,56.9-27.5c13.7-7.1,35.2-18.2,48.7-24.7
		c15.3-8.7,32-17.6,47.4-26c65.4-37.8,128.7-80.4,185.2-130.6C3330.1,2474.7,3417.5,2317.3,3447,2146.4L3447,2146.4z"/>
</g>
</svg>
