<?xml version="1.0" encoding="utf-8"?>
<!-- Generator: Adobe Illustrator 27.3.1, SVG Export Plug-In . SVG Version: 6.00 Build 0)  -->
<svg version="1.1" id="Слой_2" xmlns="http://www.w3.org/2000/svg" xmlns:xlink="http://www.w3.org/1999/xlink" x="0px" y="0px"
	 viewBox="0 0 4000 4000" style="enable-background:new 0 0 4000 4000;" xml:space="preserve">
<style type="text/css">
	.st0{fill:#F6A119;}
	.st1{fill:#FFFFFF;}
</style>
<g>
	<g>
		<g>
			<path class="st0" d="M1379.5,2189.9l-25.3,6.7c-2.2,0.6-4.5-0.3-5.7-2.3c-6.1-10.6-17.8-15.9-35.1-15.9c-11.6,0-20.9,2-27.9,6.1
				c-7,4.1-11,9.1-11.9,15c-0.7,4.6,1,8.4,4.9,11.3c3.9,2.9,10.8,5.4,20.5,7.6l27.6,6.2c8,1.7,15.4,4.5,22.3,8.3
				c6.9,3.8,11.7,8.5,14.5,14.2c2.8,5.7,3.8,11.7,2.9,17.9c-2.1,14.1-10.9,26.3-26.5,36.6c-15.6,10.3-36.9,15.5-63.9,15.5
				c-38.7,0-63.2-11-73.5-33c-1.3-2.9,0.3-6.3,3.4-7.1l25.5-6.5c2.3-0.6,4.7,0.5,5.8,2.6c6.8,13.7,21.6,20.6,44.6,20.6
				c14.2,0,25.1-2.4,32.8-7.3c7.6-4.9,11.9-10.4,12.8-16.6c0.5-3.6-0.3-6.6-2.5-9.3s-5.2-4.6-9-6c-3.8-1.4-11.4-3.3-22.9-5.8
				c-16-3.6-27.9-6.9-35.6-10.1c-7.7-3.2-13.7-7.8-17.9-13.9c-4.2-6.1-5.8-13.2-4.5-21.6c2.1-14.2,10.6-25.7,25.6-34.7
				c15-9,34.4-13.5,58.1-13.5c31.7,0,53.1,9.1,64.3,27.3C1384.3,2185.3,1382.7,2189,1379.5,2189.9z"/>
			<path class="st0" d="M1555.6,2173.6c-12.7-12.5-31.5-18.7-56.5-18.7c-30,0-55.2,9.6-75.7,28.8c-20.5,19.2-32.3,40.7-35.5,64.3
				c-2.8,21.1,2.6,38,16.3,50.8c13.7,12.8,31.6,19.2,53.6,19.2c30.2,0,55.6-9.5,76.4-28.3c20.7-18.9,32.8-40.5,36-64.8
				C1573.1,2203.1,1568.3,2186,1555.6,2173.6z M1531.1,2218.6c-2.4,17.7-9.4,34.9-21.1,51.4c-11.7,16.5-27.6,24.8-47.7,24.8
				c-11.5,0-20.8-3.2-28-9.6c-7.2-6.4-9.7-17.2-7.7-32.3c2.1-15.9,9.1-32.3,20.8-49.3c11.7-17,27.1-25.5,46.2-25.5
				C1522.3,2178.1,1534.8,2191.6,1531.1,2218.6z"/>
			<path class="st0" d="M1737,2267.4c3.5,1.1,4.7,5.4,2.5,8.2c-21.4,27.3-49.5,41-84.3,41c-22.6,0-40.1-6.1-52.6-18.4
				c-12.5-12.3-17.4-28.9-14.6-50c3.5-26.4,15.6-49,36.3-67.9c20.7-18.9,45.3-28.4,73.9-28.4c22.2,0,39.2,4.9,50.9,14.6
				c10.6,8.8,16.2,20.6,16.8,35.5c0.1,2.7-1.8,5.1-4.5,5.4l-24.2,3.2c-3,0.4-5.6-1.8-5.9-4.8c-1.7-20.3-14.1-30.5-37.1-30.5
				c-20.2,0-36,9-47.3,27c-11.3,18-18,35.2-20.2,51.4c-1.7,12.7,0.8,22.2,7.4,28.6c6.6,6.4,15.7,9.6,27.3,9.6
				c10.7,0,20.8-3.1,30.3-9.3c8.4-5.5,15.3-12,20.8-19.6c1.3-1.8,3.7-2.6,5.8-1.9L1737,2267.4z"/>
			<path class="st0" d="M1923.6,2317.8h-27.6c-3.9,0-6.7-3.7-5.8-7.5l15-56.9c1-3.8-1.9-7.5-5.8-7.5h-74.6c-2.7,0-5.1,1.8-5.8,4.4
				l-16.6,62.9c-0.7,2.6-3.1,4.4-5.8,4.4h-27.4c-3.9,0-6.7-3.7-5.8-7.5l40.4-153.9c0.7-2.6,3.1-4.4,5.8-4.4h27.6
				c3.9,0,6.7,3.7,5.8,7.5l-14,53c-1,3.8,1.8,7.5,5.8,7.5h74.6c2.7,0,5.1-1.8,5.8-4.4l15.6-59.1c0.7-2.6,3.1-4.4,5.8-4.4h27.4
				c3.9,0,6.7,3.7,5.8,7.5l-40.4,153.9C1928.7,2315.9,1926.3,2317.8,1923.6,2317.8z"/>
			<path class="st0" d="M2003.7,2317.8h-27.3c-3.6,0-6.2-3.4-5.3-6.8l40.2-155.5c0.6-2.4,2.8-4.1,5.3-4.1h27.3
				c3.6,0,6.2,3.4,5.3,6.8l-40.2,155.5C2008.3,2316.1,2006.2,2317.8,2003.7,2317.8z"/>
		</g>
	</g>
	<g>
		<g>
			<path class="st1" d="M1535.6,1790.5c-7.8-18.8-18.5-33.6-32-44.3c-13.5-10.8-27.7-18-42.7-21.8c-14.9-3.8-34.8-5.6-59.5-5.6
				h-102.3c-2.8,0-5.3,1.9-6,4.7l-74.3,295.6c-1,3.9,2,7.7,6,7.7h118.2c32.3,0,57.1-2,74.6-6.1c17.5-4.1,35.8-12.9,54.7-26.4
				c19-13.6,35.5-32.9,49.6-58c14.1-25.1,21.9-52,23.4-80.8C1546.7,1830.9,1543.4,1809.2,1535.6,1790.5z M1463.6,1907.1
				c-7.5,19.4-17,34.3-28.3,44.7c-11.4,10.4-23,17.7-34.9,22c-11.9,4.3-27.6,6.4-47,6.4h-50.3c-4,0-7-3.8-6-7.7l51.5-203.5
				c0.7-2.8,3.2-4.7,6-4.7h34.5c22.1,0,39.4,2.8,52.1,8.5c12.6,5.6,21.9,15.2,27.9,28.8c6,13.5,8.5,28.7,7.6,45.6
				C1475.5,1867.7,1471.1,1887.7,1463.6,1907.1z"/>
			<path class="st1" d="M1875.5,1753.5c-12-14.6-25.8-24-41.6-28.3c-15.8-4.3-37.4-6.4-64.9-6.4h-133.5c-2.2,0-4.2,1.5-4.8,3.7
				l-75,298.2c-0.8,3.1,1.6,6.1,4.8,6.1h55.1c2.2,0,4.2-1.5,4.8-3.7l30-118.9c0.5-2.2,2.5-3.7,4.8-3.7h77.6c2.2,0,4.2,1.5,4.7,3.7
				l30.1,118.9c0.6,2.2,2.5,3.7,4.7,3.7h59.4c3.2,0,5.6-3.1,4.7-6.2l-34.3-121.6c-0.8-2.7,0.9-5.5,3.7-6.1
				c27.2-5.9,47.8-16.9,61.9-33.1c15-17.2,23.1-35.9,24.1-56.1C1893,1784.7,1887.5,1768,1875.5,1753.5z M1808.9,1839.7
				c-9.4,10.5-28,15.7-55.8,15.7h-84.3c-3.2,0-5.5-3-4.8-6.1l20.6-82c0.5-2.2,2.5-3.7,4.8-3.7h68.1c16.7,0,29.2,1.2,37.5,3.5
				c8.2,2.3,15.2,7,21,14.1c5.8,7.1,8.4,15.6,7.9,25.5C1823.3,1818.3,1818.3,1829.3,1808.9,1839.7z"/>
			<path class="st1" d="M1952.3,2026.7h-56.6c-3.5,0-6-3.3-5.2-6.7l74.8-297.3c0.6-2.4,2.7-4,5.2-4h56.6c3.5,0,6,3.3,5.2,6.7
				l-74.8,297.3C1956.9,2025,1954.8,2026.7,1952.3,2026.7z"/>
			<path class="st1" d="M2177.8,2026.7h-65.1c-2.7,0-5.1-2-5.5-4.7l-43.1-297c-0.5-3.3,2.1-6.3,5.5-6.3h57.5c2.8,0,5.1,2,5.5,4.8
				l30.3,222.6c0.7,5.2,7.6,6.6,10.2,2l129.8-226.6c1-1.7,2.8-2.8,4.8-2.8h45.4c4.3,0,6.9,4.6,4.7,8.3l-175.5,297
				C2181.6,2025.7,2179.8,2026.7,2177.8,2026.7z"/>
			<path class="st1" d="M2549.6,2026.7h-223.9c-4.1,0-7.2-3.9-6.2-7.9l74.3-295.3c0.7-2.8,3.3-4.8,6.2-4.8h217.5
				c4.1,0,7.2,3.9,6.2,7.9l-9,35.6c-0.7,2.8-3.3,4.8-6.2,4.8h-155.2c-2.9,0-5.5,2-6.2,4.8l-16.9,67.1c-1,4,2,7.9,6.2,7.9h120.5
				c4.1,0,7.2,3.9,6.2,7.9l-8.3,32.8c-0.7,2.8-3.3,4.8-6.2,4.8h-126.9c-2.9,0-5.5,2-6.2,4.8l-18.5,73.2c-1,4,2,7.9,6.2,7.9h155.5
				c4.1,0,7.2,3.9,6.2,7.9l-9,35.6C2555,2024.7,2552.5,2026.7,2549.6,2026.7z"/>
		</g>
		<g>
			<path class="st1" d="M3073.1,1936c4.4,1.5,6.3,6.8,3.7,10.7c-34.6,53.4-83.4,80-146.6,80c-40.1,0-72.2-11.5-96.2-34.4
				c-24-22.9-34.9-54.1-32.8-93.6c2.6-49.3,21.1-91.6,55.4-127c34.3-35.4,76.8-53,127.6-53c39.6,0,70.5,9.1,92.7,27.2
				c20.6,16.9,32.3,39.8,35.1,68.7c0.4,3.8-2.4,7.1-6.1,7.7l-46.7,6.6c-4,0.6-7.6-2.2-8.1-6.2c-5-40-28.5-60-70.6-60
				c-36,0-62.8,16.9-80.4,50.6c-17.6,33.7-27.3,65.8-28.9,96.2c-1.3,23.7,4.4,41.6,17.1,53.6s29.3,18,49.9,18
				c19,0,36.5-5.8,52.6-17.5c14.5-10.5,26.1-23,34.8-37.6c1.7-2.9,5.2-4.2,8.4-3.1L3073.1,1936z"/>
			<path class="st1" d="M3323,2019h-210.7c-3.6,0-6.3-3.4-5.3-6.9l74.6-281.5c0.6-2.4,2.8-4.1,5.3-4.1h59.1c3.6,0,6.3,3.4,5.3,6.9
				l-61.9,232.8c-0.9,3.5,1.7,6.9,5.3,6.9h137.5c3.6,0,6.3,3.4,5.3,6.9l-9.3,34.8C3327.7,2017.3,3325.5,2019,3323,2019z"/>
			<path class="st1" d="M3682.9,1726.4c4.4,0,7.5,4.1,6.4,8.4l-48.1,180.7c-6.6,24.9-14.3,44.1-23,57.7
				c-8.8,13.6-24.2,25.7-46.2,36.4c-22,10.7-47.9,16.1-77.8,16.1c-18.6,0-36.6-2.4-54-7.3c-17.4-4.9-32.5-14-45.5-27.3
				c-12.9-13.4-18.8-31.3-17.6-53.9c0.6-11.3,3.1-25.1,7.4-41.4l43.6-164.4c0.8-2.9,3.4-4.9,6.4-4.9h54.6c4.4,0,7.5,4.1,6.4,8.4
				l-43.6,163.7c-5,18.6-7.6,31-8,37.3c-0.8,15.7,5,27.1,17.4,34.1c12.5,7,27.1,10.5,43.9,10.5c14.6,0,27.7-2.3,39.3-6.9
				c11.5-4.6,20.7-11.6,27.4-21c6.7-9.4,13.3-26.1,19.6-49.9l45.3-171.2c0.8-2.9,3.4-4.9,6.4-4.9H3682.9z"/>
			<path class="st1" d="M3943.9,1875.9c-5.4-2.8-5-10.7,0.8-12.7c35.2-12.7,53.7-34.1,55.3-64.1c0.9-16.9-4.2-31.3-15.3-43.4
				c-11.1-12.1-24.1-20-39-23.7c-14.9-3.7-34-5.6-57.3-5.6H3764c-3.2,0-5.9,2.1-6.7,5.2l-73.9,278.6c-1.2,4.4,2.2,8.7,6.7,8.7h155.6
				c51.5,0,86.7-9,105.5-27c18.7-18,28.7-37.1,29.8-57.2C3982.3,1909.1,3970,1889.5,3943.9,1875.9z M3812.8,1772.1
				c0.8-3,3.6-5.2,6.7-5.2h53.2c41.6,0,61.7,12.8,60.3,38.4c-0.5,10-5.8,19.5-15.8,28.6c-10,9.1-29.5,13.6-58.6,13.6h-56.9
				c-4.6,0-7.9-4.3-6.7-8.7L3812.8,1772.1z M3903.3,1956.9c-6.7,7.4-15,12.3-24.7,15c-9.7,2.6-24.5,4-44.4,4h-66.4
				c-4.6,0-7.9-4.3-6.7-8.7l19.7-74.2c0.8-3,3.6-5.2,6.7-5.2h61.9c14.6,0,26.1,1.1,34.4,3.3c8.3,2.2,15.5,6.8,21.7,13.7
				c6.3,6.9,9.1,15.3,8.6,25C3913.7,1940.5,3910,1949.6,3903.3,1956.9z"/>
		</g>
	</g>
	<g>
		<path class="st0" d="M995.6,2040.3C995.6,2040.3,995.6,2040.4,995.6,2040.3c-4.2,136.1-115.7,245-252.7,245H378.2
			c-1.2,0-2.3-0.5-3-1.4c-0.2-0.2-0.3-0.5-0.2-0.8c5.8-45.5,27.1-110.5,94.7-163.8c4.8-3.8,10.8-5.8,17-5.8h140.9
			c0.8,0,1.3,0.8,1,1.5l-9.5,22.3c-0.6,1.4,0.3,3,1.8,3.1c3.5,0.4,9.8,1,17.9,1.2c0.7,0,1.3,0.8,1,1.5l-20.7,48.6
			c-0.6,1.4,0.3,3,1.8,3.1c22.2,2.7,161.4,13.5,156.1-135.6c-0.2-6.4-0.8-12.5-1.8-18.3c-22.4-131.2-236.2-113.1-455.6-109
			c-122,2.3-249.1-64.4-301.7-153.6c-0.4-0.7,0.1-1.6,0.9-1.6h809.6c0.2,0,0.4,0.1,0.6,0.2l68.3,44.6c0.1,0,0.1,0.1,0.2,0.1
			C955.9,1876.7,993.1,1954.2,995.6,2040.3z"/>
		<path class="st1" d="M995.7,1994.8v37.6c0,2.6,0,5.3-0.1,7.8c-4.2,136-115.7,245-252.7,245H378.2c-1.4,0-2.6-0.7-3.3-1.7
			c-0.4-0.5-0.6-1.1-0.7-1.8c-2.6-21.1-10.5-133.3,95.4-216.8c4.8-3.8,10.8-5.8,17-5.8h162.3c1.6,0,2.7,1.6,2,3.1l-21.9,51.3
			l-10.1,23.8c-0.6,1.4,0.3,3,1.8,3.1c3.7,0.4,10.6,1.1,19.5,1.2c40.1,0.6,121.1-9.8,134.8-100.8c1.6-10.8,2.3-22.8,1.8-36.1
			c-5.3-151.2-228.4-131.6-457.5-127.3c-96.4,1.8-196-39.4-259.5-100.8c-28.2-27.3-49.4-58.6-59.9-91.9c-0.5-1.4,0.6-2.9,2.1-2.9
			l681.2,0.5C855.9,1682.6,995.7,1822.4,995.7,1994.8z"/>
		<path class="st0" d="M923.3,2026.7c8.7,37.7-2.9,79.5-23.8,111.4c-21.6,32.8-54.4,57.6-90.7,72c-23.9,9.6-48.9,15.3-74.3,16.2
			c5.7-2.9,11.4-5.6,17-8.1c5.6-2.8,11.2-5.4,16.7-8.1c4-2.1,10.4-5.4,14.3-7.3c4.5-2.6,9.4-5.2,13.9-7.7
			c19.2-11.1,37.9-23.6,54.5-38.4C888.9,2123.2,914.6,2076.9,923.3,2026.7L923.3,2026.7z"/>
	</g>
</g>
</svg>
